<?xml version="1.0" encoding="UTF-8" standalone="no"?>
<svg
   width="100%"
   height="100%"
   viewBox="0 0 40 32"
   version="1.1"
   xml:space="preserve"
   style="fill-rule:evenodd;clip-rule:evenodd;stroke-linejoin:round;stroke-miterlimit:2;"
   id="svg2"
   xmlns="http://www.w3.org/2000/svg"
   xmlns:svg="http://www.w3.org/2000/svg"><defs
     id="defs2" /><path
     d="M0.519,15.913c0,-0 -0.795,0.739 -0.417,3.399l1.429,7.301c-0,-0 1.063,5.387 5.878,5.387l24.945,-0l-3.493,-13.891c0,-0 -0.404,-2.196 -2.527,-2.196l-25.815,-0Z"
     id="path1" /><path
     d="M6.065,11.914l20.586,0c0,0 4.49,-0.011 5.703,3.999l4.107,15.342c0,0 3.539,-0.786 3.539,-5.055l0,-21.461c0,-0 -0.256,-4.683 -5.489,-4.683l-9.335,-0.055c-0,0 -6.475,-0.234 -6.475,5.826l-7.409,0c-0,0 -5.227,0.062 -5.227,6.087Z"
     id="path2" /></svg>
