<?xml version="1.0" encoding="UTF-8" standalone="no"?><!DOCTYPE svg PUBLIC "-//W3C//DTD SVG 1.1//EN" "http://www.w3.org/Graphics/SVG/1.1/DTD/svg11.dtd"><svg width="100%" height="100%" viewBox="0 0 150 150" version="1.1" xmlns="http://www.w3.org/2000/svg" xmlns:xlink="http://www.w3.org/1999/xlink" xml:space="preserve" xmlns:serif="http://www.serif.com/" style="fill-rule:evenodd;clip-rule:evenodd;stroke-linejoin:round;stroke-miterlimit:2;"><path d="M119.118,51.551l-26.471,-0l0,8.823l8.824,0l-0,38.235l8.823,0l0,-38.235l8.824,0l-0,-8.823Z" style="fill:#2b0804;"/><path d="M150,98.609l0,-27.941l-17.647,0l-0,-10.454l17.647,0l0,-8.823l-26.471,-0l0,28.101l17.647,-0l0,10.294l-17.647,-0l0,8.823l26.471,0Z" style="fill:#2b0804;"/><path d="M0,98.609l26.471,0l-0,-23.529l-17.647,0l-0,-23.529l-8.824,-0l0,47.058Z" style="fill:#2b0804;"/><path d="M30.882,98.609l0,-47.058l26.471,-0l-0,23.529l-17.234,0l0,14.706l17.234,-0l-0,8.823l-26.471,0Z" style="fill:#2b0804;"/><path d="M88.235,51.551l0,47.058l-26.47,0l-0,-23.529l17.647,0l-0,-14.706l-17.647,0l-0,-8.823l26.47,-0Z" style="fill:#2b0804;"/><g><rect x="141.176" y="0" width="8.824" height="46.064" style="fill:#b4000c;"/><rect x="88.235" y="7.236" width="8.824" height="38.828" style="fill:#b4000c;"/><rect x="114.706" y="19.118" width="8.824" height="26.946" style="fill:#b4000c;"/><rect x="61.765" y="26.65" width="8.824" height="19.414" style="fill:#b4000c;"/><rect x="127.941" y="5.826" width="8.824" height="40.238" style="fill:#b4000c;"/><rect x="75" y="14.921" width="8.824" height="31.143" style="fill:#b4000c;"/><rect x="101.471" y="12.72" width="8.824" height="33.344" style="fill:#b4000c;"/><rect x="48.529" y="36.357" width="8.824" height="9.707" style="fill:#b4000c;"/></g><g><rect x="92.647" y="103.936" width="8.824" height="46.064" style="fill:#b4000c;"/><rect x="39.706" y="103.936" width="8.824" height="38.828" style="fill:#b4000c;"/><rect x="66.176" y="103.936" width="8.824" height="26.946" style="fill:#b4000c;"/><rect x="13.235" y="103.936" width="8.824" height="19.414" style="fill:#b4000c;"/><rect x="79.412" y="103.936" width="8.824" height="40.238" style="fill:#b4000c;"/><rect x="26.471" y="103.936" width="8.824" height="31.143" style="fill:#b4000c;"/><rect x="52.941" y="103.936" width="8.824" height="33.344" style="fill:#b4000c;"/><rect x="0" y="103.936" width="8.824" height="9.707" style="fill:#b4000c;"/></g></svg>